<svg width="210" height="210" viewBox="0 0 210 210" fill="none" xmlns="http://www.w3.org/2000/svg">
<g clip-path="url(#clip0_38_1830)">
<path d="M150.292 209.296L150.292 192.82L182.643 163.163L172.938 143.391L169.703 120.324L179.408 80.7814L166.467 67.6005L176.173 44.5338L145.035 58.1266L59.7113 133.505L59.7113 209.296L150.292 209.296Z" fill="#F9B485"/>
<path d="M49.8768 2.72845L150.68 2.72845L150.68 160.113L49.8768 160.113L49.8768 2.72845Z" fill="#169BD6"/>
<path d="M170.426 146.97L143.062 164.033C140.83 165.425 139.246 167.614 138.649 170.132C138.051 172.65 138.488 175.296 139.865 177.504C141.202 179.647 143.324 181.214 145.801 181.885C148.278 182.557 150.924 182.283 153.202 181.12L181.926 166.45C183.162 165.819 184.256 164.953 185.146 163.905C186.036 162.856 186.702 161.645 187.107 160.342C187.512 159.04 187.647 157.671 187.505 156.317C187.362 154.962 186.945 153.649 186.277 152.454L185.297 150.7C184.607 149.466 183.665 148.384 182.529 147.52C181.392 146.657 180.086 146.031 178.692 145.681C177.297 145.331 175.843 145.265 174.422 145.487C173 145.709 171.64 146.214 170.426 146.97V146.97Z" fill="#FDCAA7"/>
<path d="M173.298 101.532L156.951 130.041C155.618 132.366 155.252 135.118 155.932 137.709C156.611 140.299 158.281 142.522 160.585 143.899C162.822 145.237 165.485 145.676 168.035 145.128C170.585 144.58 172.831 143.086 174.315 140.948L193.04 113.991C193.846 112.831 194.412 111.523 194.705 110.143C194.998 108.763 195.012 107.338 194.747 105.953C194.481 104.567 193.942 103.248 193.159 102.072C192.377 100.897 191.367 99.8883 190.189 99.1059L188.462 97.958C187.246 97.1504 185.876 96.6006 184.438 96.3431C182.999 96.0855 181.523 96.1255 180.101 96.4607C178.679 96.7959 177.341 97.419 176.171 98.2914C175 99.1638 174.023 100.267 173.298 101.532V101.532Z" fill="#FDCAA7"/>
<path opacity="0.3" d="M54.794 2.72845L150.68 152.736L150.68 2.72845L54.794 2.72845Z" fill="#FAFBFC"/>
<path d="M163.464 72.0192L147.117 100.532C145.784 102.856 145.418 105.609 146.097 108.199C146.776 110.79 148.447 113.012 150.75 114.39C152.987 115.727 155.651 116.167 158.201 115.619C160.751 115.071 162.996 113.576 164.481 111.438L183.205 84.4822C184.011 83.3225 184.577 82.0144 184.87 80.6342C185.163 79.2541 185.178 77.8296 184.912 76.4439C184.647 75.0582 184.107 73.7391 183.325 72.5635C182.542 71.388 181.533 70.3796 180.355 69.5973L178.628 68.4494C177.412 67.6416 176.042 67.0917 174.604 66.8338C173.166 66.5759 171.69 66.6157 170.267 66.9505C168.845 67.2853 167.507 67.908 166.337 68.78C165.167 69.652 164.189 70.7546 163.464 72.0192V72.0192Z" fill="#FDCAA7"/>
<path d="M163.464 32.6725L147.117 61.185C145.784 63.5098 145.418 66.2625 146.097 68.8531C146.776 71.4436 148.447 73.6659 150.75 75.0435C152.987 76.3812 155.651 76.8206 158.201 76.2725C160.751 75.7243 162.996 74.2298 164.481 72.0921L183.206 45.1354C184.012 43.9758 184.577 42.6679 184.87 41.288C185.163 39.908 185.178 38.4838 184.912 37.0983C184.647 35.7129 184.108 34.3939 183.325 33.2185C182.543 32.0431 181.534 31.0347 180.357 30.2522L178.629 29.1043C177.413 28.2962 176.044 27.746 174.606 27.4879C173.167 27.2298 171.691 27.2693 170.269 27.604C168.846 27.9386 167.508 28.5613 166.338 29.4332C165.167 30.3052 164.189 31.4078 163.464 32.6725V32.6725Z" fill="#FDCAA7"/>
<path d="M138.387 37.1563L108.884 37.1563L99.0493 46.9929L99.0493 17.4832L138.387 17.4832L138.387 37.1563Z" fill="#4EDDDD"/>
<path d="M103.967 81.4209C110.756 81.4209 116.26 75.9159 116.26 69.1252C116.26 62.3344 110.756 56.8295 103.967 56.8295C97.1773 56.8295 91.6735 62.3344 91.6735 69.1252C91.6735 75.9159 97.1773 81.4209 103.967 81.4209Z" fill="#FDCAA7"/>
<path d="M138.387 135.522L138.387 116.114C138.387 102.386 124.294 91.2574 112.855 91.2574L97.5363 91.2574C86.0978 91.2574 72.0044 102.386 72.0044 116.114L72.0044 135.522L138.387 135.522Z" fill="#F7D74F"/>
<path d="M59.7113 17.4832L84.2976 17.4832L84.2976 42.0746L59.7113 42.0746L59.7113 17.4832Z" fill="#F7D74F"/>
<path opacity="0.2" d="M55.8555 123.626L55.8555 80.7649C55.8555 80.7649 55.8522 71.7068 49.8768 64.2068L49.8768 162.572L113.801 162.572C106.497 149.348 89.6321 127.846 55.8555 123.626V123.626Z" fill="#020202"/>
<path d="M59.36 209.296L59.36 186.469L20.3732 150.597L20.3732 59.2886C49.6133 59.2886 49.6133 85.3769 49.6133 85.3769L49.6133 127.77C98.3468 133.885 111.342 176.686 111.342 176.686L111.342 209.296L59.36 209.296Z" fill="#FDCAA7"/>
<path d="M137.685 15.0241L99.7518 15.0241C98.9134 15.0241 98.1094 15.3774 97.5166 16.0063C96.9237 16.6352 96.5907 17.4881 96.5907 18.3775L96.5907 48.5577C96.5907 49.2209 96.7761 49.8693 97.1234 50.4208C97.4707 50.9723 97.9644 51.4021 98.5421 51.6559C99.1197 51.9097 99.7553 51.9761 100.369 51.8467C100.982 51.7173 101.545 51.3979 101.987 50.9289L110.544 41.851L137.685 41.851C138.523 41.851 139.327 41.4977 139.92 40.8688C140.513 40.2399 140.846 39.387 140.846 38.4976L140.846 18.3775C140.846 17.4881 140.513 16.6352 139.92 16.0063C139.327 15.3774 138.523 15.0241 137.685 15.0241V15.0241ZM134.524 35.1443L109.235 35.1443C108.82 35.1442 108.409 35.231 108.025 35.3995C107.642 35.568 107.293 35.815 107 36.1264L102.913 40.4623L102.913 21.7308L134.524 21.7308L134.524 35.1443Z" fill="black"/>
<path d="M102.737 86.3391C105.898 86.3391 108.988 85.4017 111.616 83.6453C114.244 81.8889 116.292 79.3925 117.502 76.4717C118.711 73.551 119.028 70.337 118.411 67.2364C117.795 64.1357 116.273 61.2875 114.038 59.0521C111.803 56.8166 108.955 55.2943 105.855 54.6775C102.755 54.0607 99.5417 54.3773 96.6215 55.5871C93.7014 56.7969 91.2055 58.8457 89.4495 61.4743C87.6934 64.1029 86.7562 67.1933 86.7562 70.3548C86.761 74.5926 88.4462 78.6555 91.4422 81.6521C94.4382 84.6487 98.5003 86.3343 102.737 86.3391V86.3391ZM102.737 60.9635C104.594 60.9635 106.409 61.5142 107.953 62.5461C109.497 63.578 110.701 65.0446 111.411 66.7605C112.122 68.4765 112.308 70.3646 111.946 72.1863C111.584 74.0079 110.689 75.6812 109.376 76.9945C108.063 78.3079 106.39 79.2023 104.569 79.5647C102.748 79.9271 100.86 79.7412 99.1445 79.0305C97.4289 78.3198 95.9626 77.1162 94.9309 75.5719C93.8991 74.0277 93.3484 72.2121 93.3483 70.3548C93.3511 67.865 94.3411 65.4779 96.1013 63.7173C97.8614 61.9567 100.248 60.9663 102.737 60.9635Z" fill="black"/>
<path d="M110.217 88.7982L95.2578 88.7982C82.4983 88.7982 67.0872 101.773 67.0872 117.886L73.5653 117.886C73.5653 105.828 85.4928 95.4967 95.2578 95.4967L110.217 95.4967C121.899 95.4967 131.909 107.807 131.909 117.886L131.909 137.981L138.387 137.981L138.387 117.886C138.387 101.773 122.976 88.7982 110.217 88.7982Z" fill="black"/>
<path d="M84.2975 41.2549L84.2975 18.303C84.2975 17.4334 83.9521 16.5994 83.3374 15.9845C82.7226 15.3696 81.8888 15.0241 81.0194 15.0241L58.0722 15.0241C57.2028 15.0241 56.3689 15.3696 55.7542 15.9845C55.1394 16.5994 54.794 17.4334 54.794 18.303L54.794 41.2549C54.794 42.1245 55.1394 42.9585 55.7542 43.5734C56.3689 44.1883 57.2028 44.5338 58.0722 44.5338L81.0194 44.5338C81.8888 44.5338 82.7226 44.1883 83.3374 43.5734C83.9521 42.9585 84.2975 42.1245 84.2975 41.2549ZM77.7412 37.9761L61.3503 37.9761L61.3503 21.5818L77.7412 21.5818L77.7412 37.9761Z" fill="black"/>
<path d="M152.364 0.269287L50.7071 0.269287C49.8374 0.269287 49.0033 0.613387 48.3883 1.22589C47.7734 1.83839 47.4279 2.66912 47.4279 3.53533L47.4279 66.8782C42.946 61.214 35.0409 55.792 21.1939 55.792C20.3242 55.792 19.4901 56.1361 18.8751 56.7486C18.2601 57.3611 17.9146 58.1918 17.9146 59.0581L17.9146 150.507C17.9144 150.96 18.0089 151.408 18.1919 151.823C18.375 152.238 18.6427 152.61 18.9779 152.916L57.2656 187.87L57.2656 209.296L63.8241 209.296L63.8241 186.434C63.8243 185.981 63.7299 185.533 63.5468 185.118C63.3638 184.703 63.0961 184.331 62.7608 184.025L24.4731 149.071L24.4731 62.4466C33.6161 63.1459 40.1893 66.8606 44.0404 73.5156C46.0594 77.0931 47.2189 81.0878 47.4279 85.1864L47.4279 127.645C47.4279 128.441 47.7198 129.21 48.2488 129.806C48.7778 130.403 49.5074 130.787 50.3005 130.886C69.7395 133.306 85.6533 141.856 97.5988 156.3C106.586 167.166 109.846 177.488 109.878 177.593L116.149 175.684C116.055 175.375 114.491 170.376 110.58 163.571L139.08 163.571C137.684 165.55 136.862 167.873 136.702 170.285C136.543 172.698 137.053 175.108 138.176 177.252C139.299 179.395 140.992 181.19 143.071 182.44C145.149 183.69 147.532 184.346 149.96 184.338C152.091 184.339 154.19 183.825 156.077 182.84L162.479 179.504L150.169 190.538C149.828 190.845 149.555 191.219 149.368 191.637C149.181 192.055 149.085 192.508 149.085 192.966L149.085 209.296L155.643 209.296L155.643 194.42L186.782 166.508C189.216 164.497 190.873 161.706 191.468 158.612C192.064 155.518 191.562 152.314 190.047 149.549L189.081 147.785C187.925 145.667 186.221 143.896 184.147 142.653C182.073 141.411 179.703 140.743 177.283 140.719L194.972 115.27C196.002 113.788 196.725 112.116 197.1 110.352C197.474 108.588 197.492 106.767 197.152 104.996C196.813 103.225 196.122 101.539 195.122 100.037C194.121 98.5346 192.83 97.2457 191.323 96.2456L189.645 95.1315C186.805 93.2538 183.364 92.4995 179.994 93.0163L184.881 85.9862C185.911 84.5035 186.635 82.8313 187.01 81.0671C187.384 79.3029 187.402 77.4821 187.063 75.7109C186.723 73.9397 186.033 72.2537 185.032 70.7511C184.031 69.2485 182.739 67.9596 181.233 66.9594L179.555 65.8453C177.417 64.4302 174.923 63.6429 172.357 63.5734L184.88 45.557C185.91 44.0744 186.634 42.4022 187.008 40.638C187.383 38.8738 187.401 37.053 187.061 35.2818C186.722 33.5106 186.031 31.8246 185.03 30.322C184.029 28.8194 182.738 27.5304 181.232 26.5303L179.557 25.4137C178.002 24.381 176.25 23.6778 174.41 23.348C172.57 23.0181 170.682 23.0687 168.863 23.4964C167.043 23.9242 165.332 24.72 163.834 25.8345C162.337 26.949 161.085 28.3582 160.158 29.9748L155.643 37.8435L155.643 3.53533C155.643 2.66912 155.298 1.83839 154.683 1.22589C154.068 0.613387 153.234 0.269287 152.364 0.269287V0.269287ZM102.844 152.369C94.1929 141.833 78.7812 128.706 53.9864 124.808L53.9864 6.80137L149.085 6.80137L149.085 49.275L144.275 57.6586C142.573 60.6617 142.111 64.2062 142.987 67.5424C143.862 70.8787 146.006 73.745 148.965 75.5352C151.017 76.7632 153.367 77.411 155.761 77.4091C155.889 77.4091 156.017 77.4014 156.145 77.3977L144.275 98.0873C142.573 101.09 142.111 104.635 142.987 107.971C143.862 111.307 146.006 114.174 148.965 115.964C149.006 115.988 149.047 116.005 149.085 116.03L149.085 156.007L147.461 157.039L106.404 157.039C105.323 155.512 104.141 153.949 102.844 152.369ZM155.643 142.307C157.605 144.704 160.358 146.329 163.41 146.894L155.643 151.835L155.643 142.307ZM155.643 125.144L155.643 117.834C155.684 117.834 155.721 117.838 155.761 117.838C157.304 117.837 158.836 117.569 160.288 117.048L155.643 125.144ZM178.874 147.465C179.815 147.702 180.697 148.13 181.463 148.724C182.229 149.318 182.863 150.065 183.324 150.915L184.29 152.679C185.035 154.039 185.31 155.606 185.07 157.137C184.831 158.668 184.091 160.078 182.965 161.148L182.963 161.145L182.525 161.537C182.162 161.828 181.771 162.083 181.359 162.298L153.038 177.053C151.508 177.851 149.727 178.029 148.068 177.551C146.408 177.073 144.998 175.975 144.132 174.486C143.266 172.997 143.011 171.233 143.419 169.561C143.828 167.89 144.869 166.44 146.325 165.514L173.306 148.352C174.121 147.828 175.038 147.479 175.996 147.326C176.955 147.173 177.935 147.22 178.874 147.465V147.465ZM182.106 99.3765C183.496 99.3778 184.855 99.7913 186.009 100.564L187.687 101.678C188.469 102.197 189.139 102.866 189.658 103.646C190.177 104.426 190.536 105.301 190.712 106.22C190.888 107.139 190.879 108.084 190.684 108.999C190.49 109.915 190.114 110.783 189.579 111.552L171.386 137.725C170.404 139.14 168.91 140.123 167.217 140.468C165.524 140.813 163.763 140.494 162.301 139.576C160.839 138.658 159.79 137.214 159.372 135.544C158.954 133.874 159.2 132.108 160.058 130.614L175.941 102.931C176.419 102.089 177.068 101.356 177.845 100.777C178.623 100.198 179.513 99.7868 180.458 99.5688C180.998 99.4414 181.551 99.3769 182.106 99.3765L182.106 99.3765ZM177.597 72.3909C178.379 72.9099 179.049 73.5789 179.568 74.3586C180.087 75.1384 180.446 76.0134 180.622 76.9325C180.798 77.8517 180.788 78.7965 180.594 79.712C180.399 80.6275 180.024 81.4952 179.489 82.2645L161.296 108.437C160.313 109.852 158.82 110.834 157.127 111.178C155.435 111.522 153.674 111.202 152.213 110.285C150.752 109.368 149.703 107.924 149.284 106.255C148.866 104.586 149.111 102.82 149.968 101.327L165.851 73.6434C166.333 72.8044 166.982 72.073 167.759 71.4945C168.536 70.9161 169.424 70.503 170.369 70.2809C171.313 70.0589 172.293 70.0326 173.247 70.2036C174.202 70.3747 175.112 70.7396 175.919 71.2755L177.597 72.3909ZM165.852 33.2155C166.333 32.3765 166.982 31.6451 167.76 31.0666C168.537 30.4882 169.425 30.0751 170.369 29.853C171.313 29.631 172.293 29.6047 173.248 29.7758C174.203 29.9469 175.112 30.3117 175.919 30.8476L177.597 31.9617C178.379 32.4808 179.049 33.1497 179.568 33.9295C180.088 34.7093 180.446 35.5843 180.622 36.5034C180.798 37.4225 180.789 38.3674 180.594 39.2829C180.4 40.1984 180.024 41.0661 179.489 41.8354L161.297 68.0082C160.314 69.4228 158.82 70.4046 157.128 70.7489C155.435 71.0932 153.675 70.7733 152.214 69.856C150.752 68.9388 149.703 67.495 149.285 65.8258C148.867 64.1567 149.112 62.3912 149.969 60.8976L165.852 33.2155Z" fill="black"/>
</g>
<defs>
<clipPath id="clip0_38_1830">
<rect width="208.983" height="209.027" fill="white" transform="translate(0.704224 0.269287)"/>
</clipPath>
</defs>
</svg>
